<svg width="84" height="63" viewBox="0 0 84 63" fill="none" xmlns="http://www.w3.org/2000/svg">
<path d="M0.333008 7.29167C0.333008 3.26458 3.59759 0 7.62467 0H63.8747C67.9018 0 71.1663 3.26458 71.1663 7.29167V42.7083C71.1663 46.7354 67.9018 50 63.8747 50H7.62467C3.59759 50 0.333008 46.7354 0.333008 42.7083V7.29167ZM12.833 5.20833V9.375C12.833 11.1009 11.4339 12.5 9.70801 12.5H5.54134V18.75H9.70801C14.8857 18.75 19.083 14.5527 19.083 9.375V5.20833H12.833ZM35.7497 35.4167C40.9272 35.4167 45.1247 31.2192 45.1247 26.0417C45.1247 20.8642 40.9272 16.6667 35.7497 16.6667C30.572 16.6667 26.3747 20.8642 26.3747 26.0417C26.3747 31.2192 30.572 35.4167 35.7497 35.4167ZM5.54134 37.5H9.70801C11.4339 37.5 12.833 38.8992 12.833 40.625V44.7917H19.083V40.625C19.083 35.4475 14.8857 31.25 9.70801 31.25H5.54134V37.5ZM58.6663 40.625C58.6663 38.8992 60.0655 37.5 61.7913 37.5H65.958V31.25H61.7913C56.6138 31.25 52.4163 35.4475 52.4163 40.625V44.7917H58.6663V40.625ZM58.6663 9.375V5.20833H52.4163V9.375C52.4163 14.5527 56.6138 18.75 61.7913 18.75H65.958V12.5H61.7913C60.0655 12.5 58.6663 11.1009 58.6663 9.375ZM10.3386 56.25C12.4999 59.9862 16.5396 62.5 21.1663 62.5H63.8747C74.8055 62.5 83.6664 53.6392 83.6664 42.7083V20.8333C83.6664 16.2066 81.1526 12.1669 77.4163 10.0056V42.7083C77.4163 50.1871 71.3534 56.25 63.8747 56.25H10.3386Z" fill="#00A3FE"/>
</svg>
