<svg width="30" height="30" viewBox="0 0 30 30" fill="none" xmlns="http://www.w3.org/2000/svg">
<g clip-path="url(#clip0_254_417)">
<path d="M7.5 16.875C7.5 17.3723 7.30246 17.8492 6.95083 18.2008C6.59919 18.5525 6.12228 18.75 5.625 18.75C5.12772 18.75 4.65081 18.5525 4.29917 18.2008C3.94754 17.8492 3.75 17.3723 3.75 16.875C3.75 16.3777 3.94754 15.9008 4.29917 15.5492C4.65081 15.1975 5.12772 15 5.625 15C6.12228 15 6.59919 15.1975 6.95083 15.5492C7.30246 15.9008 7.5 16.3777 7.5 16.875ZM26.25 16.875C26.25 17.3723 26.0525 17.8492 25.7008 18.2008C25.3492 18.5525 24.8723 18.75 24.375 18.75C23.8777 18.75 23.4008 18.5525 23.0492 18.2008C22.6975 17.8492 22.5 17.3723 22.5 16.875C22.5 16.3777 22.6975 15.9008 23.0492 15.5492C23.4008 15.1975 23.8777 15 24.375 15C24.8723 15 25.3492 15.1975 25.7008 15.5492C26.0525 15.9008 26.25 16.3777 26.25 16.875ZM11.25 15C10.7527 15 10.2758 15.1975 9.92418 15.5492C9.57254 15.9008 9.375 16.3777 9.375 16.875C9.375 17.3723 9.57254 17.8492 9.92418 18.2008C10.2758 18.5525 10.7527 18.75 11.25 18.75H18.75C19.2473 18.75 19.7242 18.5525 20.0758 18.2008C20.4275 17.8492 20.625 17.3723 20.625 16.875C20.625 16.3777 20.4275 15.9008 20.0758 15.5492C19.7242 15.1975 19.2473 15 18.75 15H11.25ZM9.11625 8.0175L7.32375 11.6063C7.25046 11.7575 7.21832 11.9253 7.23056 12.0929C7.2428 12.2606 7.29899 12.422 7.39348 12.5609C7.48796 12.6999 7.6174 12.8115 7.76876 12.8846C7.92012 12.9576 8.08804 12.9894 8.25562 12.9769C9.96187 12.84 12.6619 12.6581 15 12.6581C17.3381 12.6581 20.04 12.84 21.7444 12.9769C21.912 12.9894 22.0799 12.9576 22.2312 12.8846C22.3826 12.8115 22.512 12.6999 22.6065 12.5609C22.701 12.422 22.7572 12.2606 22.7694 12.0929C22.7817 11.9253 22.7495 11.7575 22.6763 11.6063L20.8837 8.01937C20.8061 7.8635 20.6865 7.73234 20.5385 7.6406C20.3904 7.54887 20.2198 7.50018 20.0456 7.5H9.95438C9.78042 7.50001 9.60989 7.54841 9.46187 7.63981C9.31385 7.7312 9.19418 7.86197 9.11625 8.0175Z" fill="#000A29"/>
<path d="M4.72508 6.59063C5.08677 5.74688 5.68826 5.0279 6.45489 4.52292C7.22153 4.01794 8.11957 3.74919 9.03758 3.75H20.9663C22.8413 3.75 24.5363 4.8675 25.2751 6.59063L26.7601 10.0556C26.9007 10.3838 27.1538 10.6538 27.4726 10.8131C28.4101 11.2819 29.0757 12.1538 29.282 13.1794L29.9101 16.3275C29.972 16.6294 30.002 16.9369 30.002 17.2463V18.0206C30.002 19.5469 29.2707 20.9138 28.127 21.765V25.3125C28.127 25.5611 28.0282 25.7996 27.8524 25.9754C27.6765 26.1512 27.4381 26.25 27.1895 26.25H23.4395C23.1908 26.25 22.9524 26.1512 22.7765 25.9754C22.6007 25.7996 22.502 25.5611 22.502 25.3125V22.8038C20.0795 22.8938 17.3551 22.9688 15.002 22.9688C12.6488 22.9688 9.92445 22.8938 7.50195 22.8038V25.3125C7.50195 25.5611 7.40318 25.7996 7.22737 25.9754C7.05155 26.1512 6.81309 26.25 6.56445 26.25H2.81445C2.56581 26.25 2.32736 26.1512 2.15154 25.9754C1.97573 25.7996 1.87695 25.5611 1.87695 25.3125V21.765C0.733203 20.9138 0.00195312 19.5469 0.00195312 18.0206V17.2463C0.00226781 16.9377 0.0330421 16.63 0.0938281 16.3275L0.721953 13.1775C0.928203 12.1538 1.59383 11.28 2.52945 10.8131C2.84969 10.6531 3.10281 10.3847 3.24383 10.0556L4.72883 6.59063H4.72508ZM9.03758 5.625C8.48688 5.62504 7.94831 5.78674 7.48868 6.09005C7.02904 6.39337 6.66856 6.82494 6.45195 7.33125L4.96695 10.7944C4.65199 11.5314 4.08505 12.1322 3.36758 12.4894C3.16153 12.5926 2.98178 12.7415 2.84206 12.9248C2.70233 13.1081 2.60631 13.3208 2.56133 13.5469L1.93133 16.695C1.89448 16.8765 1.87564 17.0611 1.87508 17.2463V18.0206C1.87508 19.5131 3.03758 20.7356 4.51508 20.8031C7.4307 20.9344 11.6138 21.0938 15.0001 21.0938C18.3863 21.0938 22.5695 20.9363 25.4851 20.8031C26.1989 20.7688 26.8719 20.4603 27.3637 19.9419C27.8556 19.4235 28.1283 18.7352 28.1251 18.0206V17.2463C28.1251 17.0606 28.1063 16.8769 28.0688 16.695L27.4407 13.545C27.3955 13.3193 27.2993 13.1069 27.1596 12.924C27.0199 12.7411 26.8403 12.5924 26.6345 12.4894C25.9177 12.1313 25.351 11.5307 25.0351 10.7944L23.5501 7.32938C23.3331 6.82313 22.9722 6.39174 22.5122 6.08875C22.0522 5.78577 21.5134 5.62451 20.9626 5.625H9.03758Z" fill="#000A29"/>
</g>
<defs>
<clipPath id="clip0_254_417">
<rect width="30" height="30" fill="white"/>
</clipPath>
</defs>
</svg>
