<?xml version="1.0" encoding="UTF-8"?>
<svg width="70px" height="70px" version="1.1" viewBox="0 0 600 600" xmlns="http://www.w3.org/2000/svg" xmlns:xlink="http://www.w3.org/1999/xlink">
 <g>
  <path d="m488.15 276.94c-20.133 0-36.512 16.375-36.512 36.508 0 20.125 16.379 36.508 36.512 36.508 20.133 0 36.512-16.379 36.512-36.508-0.003906-20.133-16.379-36.508-36.512-36.508z" fill="#fff"/>
  <path d="m185.87 277.55c-19.293 0-34.988 15.695-34.988 34.988 0 19.285 15.695 34.984 34.988 34.984 19.297 0 34.996-15.695 34.996-34.984-0.003907-19.301-15.699-34.988-34.996-34.988z" fill="#fff"/>
  <path d="m107.4 225.46 10.578 1.1328 13.66 16.535c-5.7344 2.6328-8.7969 4.9883-9.3477 7.1836-0.39844 1.5898-0.29688 3.7109-0.035157 6.418 0.042969 0.44141 0.41016 0.77734 0.85156 0.77734h6.7656c3.3086 0 5.9961 2.6875 5.9961 5.9961s-2.6875 5.9922-5.9961 5.9922l-7.1836 0.003906c-0.14062 0-0.30078 0.066406-0.42188 0.13281-0.41406 0.14063-0.8125 0.25781-1.2539 0.40234-5.2344 1.6562-8.4844 3.1914-9.0703 13.316-0.078124 1.332-0.20312 2.7812-0.33203 4.2969-0.8125 9.6055-1.9102 22.754 6.1641 31.328 9.75 10.371 22.914 11.082 23.574 11.098 0.71875 0 1.4102-0.30859 1.8945-0.82422 0.51562-0.56641 0.75781-1.3086 0.66016-2.0625-0.035156-0.27344-3.168-26.988 11.195-43.27 7.4492-8.4219 18.387-12.699 32.543-12.699 11.414 0 20.629 3.5898 27.418 10.664 14.32 14.914 13.453 40.691 13.445 40.941-0.035156 0.69531 0.23047 1.3945 0.70703 1.8867 0.48047 0.51562 1.1602 0.79687 1.8594 0.79687h210.89c1.4102-0.027343 2.5664-1.1797 2.5664-2.5703 0-0.20312-0.023438-0.38672-0.066406-0.57812-0.16406-2.9336-0.95312-25.547 12.117-39.738 7.3008-7.9414 17.754-11.969 31.059-11.969 14.074 0 24.852 4.3047 32.047 12.797 11.828 13.961 11.219 36.23 9.9844 43.637-0.125 0.75 0.089844 1.5195 0.57812 2.0898 0.49219 0.57812 1.2109 0.90625 1.9648 0.90625h55.996c0.6875 0 1.3398-0.26172 1.8203-0.76172 0.18359-0.17187 4.5117-4.582 6.3789-11.418 0.23047-0.84375 0.53906-1.7656 0.83984-2.7383 2.0625-6.3398 5.1758-15.938-3.793-24.898-9.7539-9.7617-43.703-31.449-66.383-36.688-15.805-3.6406-19.195-3.8906-22.188-4.1094-1.125-0.078125-2.1914-0.15234-3.9414-0.4375-10.73-4.6484-86.234-34.938-117.64-37.793-8.6055-0.78516-18.211-1.1797-28.543-1.1797-25.633 0-49.914 2.3906-64.086 4.6328-21.953 3.4648-108.46 16.559-123.32 18.273-5.2266 0.59766-12.789 2.2969-20.34 4.5586l-7.0859-8.5781 14.773 1.5781c4.3008 0.46484 8.043-2.6445 8.4883-6.8477 0.21094-2.0508-0.375-4.0664-1.668-5.6602-1.293-1.6016-3.1406-2.6055-5.1797-2.8281l-47.305-5.0469c-4.2773-0.46875-8.0469 2.6367-8.4961 6.8477-0.22266 2.0508 0.37109 4.0586 1.668 5.6562 1.3008 1.5977 3.1406 2.5977 5.1914 2.8164zm213.06 20.91v-23.043c21.062-2.1094 39.789-2.7109 54.926-1.7734 10.574 0.66016 25.262 3.9883 43.645 9.8945v21.234c-22.164-1.1523-59.719-3.5625-98.57-6.3125zm-75.398-6.2305c4.375-3.0469 24.695-9.7422 42.59-12.57 4.7148-0.74609 12.09-1.8438 20.805-2.9062v20.855c-31.449-2.2773-54.191-4.1172-60.918-4.9297-1.1406-0.14453-1.9336-0.30469-2.4766-0.44922zm185.96 13.113v-17.758c21.469 7.5391 39.039 15.238 39.207 15.316 0.84375 0.37109 1.5273 0.72266 2.0508 1.0586-1.6055 0.63672-5.3828 1.4375-9.418 1.5 0 0-1.8477-0.0625-6.8672-0.0625-4.5977 0-10.258 0.050781-16.801 0.14453h-0.69531c-1.5859 0.003906-4.1016-0.0625-7.4766-0.19922zm122.16 24.301c0.80078-1.1719 2.1172-1.8633 3.5352-1.8633 0.875 0 1.7031 0.25781 2.418 0.75l20.715 14.152c1.9492 1.332 2.4531 4.0039 1.1211 5.9531-1.2891 1.8945-4.0703 2.418-5.9531 1.125l-20.715-14.152c-0.94141-0.64453-1.5859-1.6172-1.793-2.7383-0.21875-1.1328 0.023437-2.2812 0.67188-3.2266z" fill="#fff"/>
 </g>
</svg>
