<svg width="25" height="25" viewBox="0 0 25 25" fill="none" xmlns="http://www.w3.org/2000/svg">
<path d="M12.0312 20.2605L16.4583 10.8855H13.0728V4.63546L8.64575 14.0105H12.0312V20.2605ZM12.4999 22.9167C11.0242 22.9167 9.6527 22.652 8.38534 22.1224C7.11797 21.5929 6.01554 20.8594 5.07804 19.9219C4.14054 18.9844 3.40704 17.882 2.87752 16.6146C2.34801 15.3473 2.08325 13.9757 2.08325 12.5C2.08325 11.0417 2.34801 9.67886 2.87752 8.4115C3.40704 7.14414 4.14054 6.04171 5.07804 5.10421C6.01554 4.16671 7.11797 3.42886 8.38534 2.89067C9.6527 2.35247 11.0242 2.08337 12.4999 2.08337C13.9583 2.08337 15.3211 2.35247 16.5885 2.89067C17.8558 3.42886 18.9583 4.16671 19.8958 5.10421C20.8333 6.04171 21.5711 7.14414 22.1093 8.4115C22.6475 9.67886 22.9166 11.0417 22.9166 12.5C22.9166 13.9757 22.6475 15.3473 22.1093 16.6146C21.5711 17.882 20.8333 18.9844 19.8958 19.9219C18.9583 20.8594 17.8558 21.5929 16.5885 22.1224C15.3211 22.652 13.9583 22.9167 12.4999 22.9167ZM12.4999 21.3542C15.0173 21.3542 17.1223 20.5079 18.815 18.8151C20.5077 17.1224 21.3541 15.0174 21.3541 12.5C21.3541 9.98268 20.5077 7.87765 18.815 6.18494C17.1223 4.49223 15.0173 3.64587 12.4999 3.64587C9.98256 3.64587 7.87752 4.49223 6.18481 6.18494C4.49211 7.87765 3.64575 9.98268 3.64575 12.5C3.64575 15.0174 4.49211 17.1224 6.18481 18.8151C7.87752 20.5079 9.98256 21.3542 12.4999 21.3542Z" fill="#DDDDDD"/>
</svg>
