<svg width="76" height="84" viewBox="0 0 76 84" fill="none" xmlns="http://www.w3.org/2000/svg">
<path d="M72.375 12.8335C61.2775 12.8335 50.4667 8.90233 39.875 0.958496C38.7637 0.125163 37.2362 0.125163 36.125 0.958496C25.5332 8.90233 14.7225 12.8335 3.625 12.8335C1.89913 12.8335 0.5 14.2326 0.5 15.9585V37.8335C0.5 58.6718 12.8232 73.9822 36.8546 83.4493C37.5908 83.7393 38.4092 83.7393 39.1454 83.4493C63.1767 73.9822 75.5 58.6718 75.5 37.8335V15.9585C75.5 14.2326 74.1008 12.8335 72.375 12.8335ZM57.82 30.7621L32.82 53.6789C31.5867 54.8093 29.6817 54.7681 28.4986 53.5847L18.082 43.1681C16.8616 41.9477 16.8616 39.9693 18.082 38.7489C19.3023 37.5285 21.281 37.5285 22.5014 38.7489L30.8025 47.0497L53.5967 26.1549C54.8687 24.9887 56.8458 25.0746 58.0121 26.3469C59.1783 27.6191 59.0921 29.5959 57.82 30.7621Z" fill="#00A3FE"/>
</svg>
