<svg width="32" height="33" viewBox="0 0 32 33" fill="none" xmlns="http://www.w3.org/2000/svg">
<g clip-path="url(#clip0_280_21)">
<path d="M32 17.0613C32 8.22364 24.836 1.05835 16 1.05835C7.164 1.05835 0 8.22364 0 17.0613C0 25.0493 5.85067 31.6692 13.5 32.8694V21.6874H9.43733V17.0599H13.5V13.5366C13.5 9.52653 15.8893 7.31013 19.544 7.31013C21.2933 7.31013 23.1253 7.62353 23.1253 7.62353V11.5616H21.1067C19.1187 11.5616 18.4987 12.7951 18.4987 14.0607V17.0613H22.936L22.2267 21.6887H18.4987V32.8707C26.1493 31.6692 32 25.048 32 17.0613Z" fill="#00A3FE"/>
</g>
<defs>
<clipPath id="clip0_280_21">
<rect width="32" height="32.0057" fill="#00A3FE" transform="translate(0 0.960693)"/>
</clipPath>
</defs>
</svg>
