<svg width="32" height="33" viewBox="0 0 32 33" fill="none" xmlns="http://www.w3.org/2000/svg">
<g clip-path="url(#clip0_280_23)">
<path d="M16 0.960693C11.6533 0.960693 11.1107 0.980697 9.404 1.05671C7.7 1.13672 6.54 1.40477 5.52 1.80084C4.468 2.20892 3.57467 2.75701 2.68533 3.6465C1.796 4.536 1.24667 5.42816 0.84 6.48168C0.444 7.50186 0.174667 8.66207 0.096 10.3664C0.016 12.0734 0 12.6161 0 16.9636C0 21.311 0.02 21.8537 0.096 23.5607C0.176 25.2637 0.444 26.4253 0.84 27.4454C1.248 28.4963 1.796 29.3911 2.68533 30.2806C3.57467 31.1688 4.46667 31.7195 5.52 32.1263C6.54133 32.521 7.70133 32.7917 9.404 32.8704C11.1107 32.9504 11.6533 32.9664 16 32.9664C20.3467 32.9664 20.8893 32.9464 22.596 32.8704C24.2987 32.7904 25.46 32.521 26.48 32.1263C27.5307 31.7182 28.4253 31.1688 29.3147 30.2806C30.2027 29.3911 30.7533 28.5003 31.16 27.4454C31.5547 26.4253 31.8253 25.2637 31.904 23.5607C31.984 21.8537 32 21.311 32 16.9636C32 12.6161 31.98 12.0734 31.904 10.3664C31.824 8.6634 31.5547 7.50054 31.16 6.48168C30.752 5.42949 30.2027 4.536 29.3147 3.6465C28.4253 2.75701 27.5347 2.20759 26.48 1.80084C25.46 1.40477 24.2987 1.13539 22.596 1.05671C20.8893 0.976696 20.3467 0.960693 16 0.960693ZM16 3.84121C20.2707 3.84121 20.78 3.86254 22.4667 3.9359C24.0267 4.00924 24.8733 4.26796 25.436 4.48933C26.1853 4.77871 26.716 5.12544 27.2787 5.68421C27.8373 6.24431 28.184 6.77641 28.4733 7.52587C28.692 8.08864 28.9533 8.93545 29.024 10.4957C29.1 12.184 29.1173 12.6908 29.1173 16.9636C29.1173 21.2363 29.0973 21.7444 29.0187 23.4314C28.9373 24.9917 28.6773 25.8385 28.4573 26.4013C28.1587 27.1507 27.8187 27.6815 27.2587 28.2443C26.7 28.803 26.16 29.1497 25.4187 29.4391C24.8587 29.6578 23.9987 29.9192 22.4387 29.9899C20.74 30.0659 20.24 30.0832 15.96 30.0832C11.6787 30.0832 11.1787 30.0632 9.48133 29.9846C7.92 29.9032 7.06 29.6431 6.5 29.4231C5.74133 29.1244 5.22 28.7844 4.66133 28.2243C4.1 27.6655 3.74133 27.1254 3.46133 26.3839C3.24133 25.8238 2.98267 24.9637 2.90133 23.4034C2.84133 21.7231 2.82 21.2043 2.82 16.9436C2.82 12.6815 2.84133 12.1614 2.90133 10.4611C2.98267 8.90079 3.24133 8.04196 3.46133 7.48186C3.74133 6.72173 4.1 6.20163 4.66133 5.6402C5.22 5.08143 5.74133 4.72137 6.5 4.44265C7.06 4.22128 7.90133 3.96123 9.46133 3.88122C11.1613 3.82121 11.6613 3.8012 15.94 3.8012L16 3.84121ZM16 8.74609C11.46 8.74609 7.784 12.4267 7.784 16.9636C7.784 21.5044 11.464 25.181 16 25.181C20.54 25.181 24.216 21.5004 24.216 16.9636C24.216 12.4227 20.536 8.74609 16 8.74609ZM16 22.2978C13.0533 22.2978 10.6667 19.9108 10.6667 16.9636C10.6667 14.0163 13.0533 11.6293 16 11.6293C18.9467 11.6293 21.3333 14.0163 21.3333 16.9636C21.3333 19.9108 18.9467 22.2978 16 22.2978ZM26.4613 8.42203C26.4613 9.48222 25.6 10.3424 24.5413 10.3424C23.4813 10.3424 22.6213 9.48089 22.6213 8.42203C22.6213 7.36317 23.4827 6.50302 24.5413 6.50302C25.5987 6.50169 26.4613 7.36317 26.4613 8.42203Z" fill="#00A3FE"/>
</g>
<defs>
<clipPath id="clip0_280_23">
<rect width="32" height="32.0057" fill="#00A3FE" transform="translate(0 0.960693)"/>
</clipPath>
</defs>
</svg>
