<svg width="30" height="30" viewBox="0 0 30 30" fill="none" xmlns="http://www.w3.org/2000/svg">
<path d="M5 6.4325C5 5.64125 5.6575 5 6.46875 5H23.5312C24.3425 5 25 5.64125 25 6.4325V23.5675C25 24.3587 24.3425 25 23.5312 25H6.46875C5.6575 25 5 24.3587 5 23.5675V6.4325ZM11.1788 21.7425V12.7113H8.1775V21.7425H11.1788ZM9.67875 11.4775C10.725 11.4775 11.3762 10.785 11.3762 9.9175C11.3575 9.03125 10.7263 8.3575 9.69875 8.3575C8.67125 8.3575 8 9.0325 8 9.9175C8 10.785 8.65125 11.4775 9.65875 11.4775H9.67875ZM15.8138 21.7425V16.6988C15.8138 16.4288 15.8337 16.1587 15.9137 15.9662C16.13 15.4275 16.6238 14.8687 17.4538 14.8687C18.54 14.8687 18.9738 15.6962 18.9738 16.9113V21.7425H21.975V16.5625C21.975 13.7875 20.495 12.4975 18.52 12.4975C16.9275 12.4975 16.2137 13.3725 15.8138 13.9888V14.02H15.7938C15.8004 14.0096 15.8071 13.9991 15.8138 13.9888V12.7113H12.8137C12.8512 13.5588 12.8137 21.7425 12.8137 21.7425H15.8138Z" fill="black"/>
</svg>
