<svg width="80" height="84" viewBox="0 0 80 84" fill="none" xmlns="http://www.w3.org/2000/svg">
<path d="M58.9966 2.06095C59.5258 1.00225 60.6078 0.333496 61.7916 0.333496H68.0416C69.2253 0.333496 70.3074 1.00225 70.8366 2.06095L75.0032 10.3943C75.4707 11.3288 75.4399 12.4351 74.9216 13.3422L71.1666 19.9134V42.0002H76.3749C78.1007 42.0002 79.4999 43.3993 79.4999 45.1252V52.4168H50.3333V45.1252C50.3333 43.3993 51.7324 42.0002 53.4582 42.0002H58.6666V19.9134L54.9116 13.3422C54.3932 12.4351 54.3624 11.3288 54.8299 10.3943L58.9966 2.06095ZM50.3333 58.6668V69.0835C50.3333 77.1377 56.8624 83.6668 64.9166 83.6668C72.9707 83.6668 79.4999 77.1377 79.4999 69.0835V58.6668H50.3333ZM28.7852 1.21808C29.6417 0.636371 30.7305 0.516579 31.6929 0.898121C40.1658 4.2575 46.1666 12.5285 46.1666 22.2085C46.1666 31.0587 41.1503 38.731 33.8153 42.5489V73.1006C33.8153 78.9356 29.085 83.666 23.2499 83.666C17.4148 83.666 12.6845 78.9356 12.6845 73.1006V42.5489C5.34938 38.731 0.333252 31.0587 0.333252 22.2085C0.333252 12.5288 6.33346 4.25816 14.8059 0.898538C15.7683 0.516913 16.8572 0.636704 17.7137 1.21841C18.5701 1.80008 19.0828 2.7682 19.0828 3.8035V19.083C19.0828 21.3842 20.9483 23.2497 23.2495 23.2497C25.5507 23.2497 27.4162 21.3842 27.4162 19.083V3.80312C27.4162 2.76787 27.9289 1.79979 28.7852 1.21808Z" fill="#00A3FE"/>
</svg>
