<svg width="150" height="150" viewBox="0 0 150 150" fill="none" xmlns="http://www.w3.org/2000/svg">
<g clip-path="url(#clip0_512_54)">
<path d="M75 140.625C57.5952 140.625 40.9032 133.711 28.5961 121.404C16.289 109.097 9.375 92.4048 9.375 75C9.375 57.5952 16.289 40.9032 28.5961 28.5961C40.9032 16.289 57.5952 9.375 75 9.375C92.4048 9.375 109.097 16.289 121.404 28.5961C133.711 40.9032 140.625 57.5952 140.625 75C140.625 92.4048 133.711 109.097 121.404 121.404C109.097 133.711 92.4048 140.625 75 140.625ZM75 150C94.8912 150 113.968 142.098 128.033 128.033C142.098 113.968 150 94.8912 150 75C150 55.1088 142.098 36.0322 128.033 21.967C113.968 7.90176 94.8912 0 75 0C55.1088 0 36.0322 7.90176 21.967 21.967C7.90176 36.0322 0 55.1088 0 75C0 94.8912 7.90176 113.968 21.967 128.033C36.0322 142.098 55.1088 150 75 150Z" fill="#00A3FE"/>
<path d="M58.7906 47.3906C59.5573 46.9958 60.4181 46.8202 61.2782 46.883C62.1383 46.9459 62.9644 47.2448 63.6656 47.7469L96.4781 71.1844C97.0858 71.618 97.5811 72.1904 97.9228 72.8541C98.2645 73.5178 98.4428 74.2535 98.4428 75C98.4428 75.7465 98.2645 76.4822 97.9228 77.1459C97.5811 77.8095 97.0858 78.382 96.4781 78.8156L63.6656 102.253C62.9647 102.755 62.139 103.053 61.2793 103.116C60.4197 103.179 59.5593 103.004 58.7928 102.609C58.0264 102.215 57.3835 101.617 56.9349 100.881C56.4863 100.145 56.2493 99.2995 56.25 98.4375V51.5625C56.2491 50.7008 56.4858 49.8555 56.934 49.1195C57.3822 48.3835 58.0246 47.7853 58.7906 47.3906Z" fill="#00A3FE"/>
</g>
<defs>
<clipPath id="clip0_512_54">
<rect width="150" height="150" fill="white"/>
</clipPath>
</defs>
</svg>
