<svg width="84" height="84" viewBox="0 0 84 84" fill="none" xmlns="http://www.w3.org/2000/svg">
<path d="M83.6732 41.6733C83.6732 18.6577 65.0157 0 42.0003 0C18.9848 0 0.327148 18.6577 0.327148 41.6733C0.327148 64.6888 18.9848 83.3462 42.0003 83.3462C65.0157 83.3462 83.6732 64.6888 83.6732 41.6733ZM24.2967 33.3396C24.2967 30.4647 26.6273 28.1341 29.5021 28.1341C32.377 28.1341 34.7074 30.4647 34.7074 33.3396C34.7074 36.2142 32.377 38.545 29.5021 38.545C26.6273 38.545 24.2967 36.2142 24.2967 33.3396ZM49.2966 33.3396C49.2966 30.4647 51.6274 28.1341 54.502 28.1341C57.377 28.1341 59.7074 30.4647 59.7074 33.3396C59.7074 36.2142 57.377 38.545 54.502 38.545C51.6274 38.545 49.2966 36.2142 49.2966 33.3396ZM34.2328 54.6162C36.2457 55.8242 39.0441 56.5146 41.9999 56.5146C44.9557 56.5146 47.7541 55.8242 49.7674 54.6167C51.2474 53.7287 53.167 54.2087 54.0549 55.6887C54.9424 57.1687 54.4624 59.0883 52.9824 59.9762C49.7874 61.8929 45.8149 62.7646 41.9999 62.7646C38.1849 62.7646 34.2124 61.8925 31.0171 59.9754C29.5372 59.0875 29.0573 57.1679 29.9452 55.6879C30.8332 54.2079 32.7528 53.7279 34.2328 54.6162Z" fill="#00A3FE"/>
</svg>
