<svg width="80" height="80" viewBox="0 0 80 80" fill="none" xmlns="http://www.w3.org/2000/svg">
<g clip-path="url(#clip0_207_264)">
<path d="M20 80C20 80 15 80 15 75C15 70 20 55 40 55C60 55 65 70 65 75C65 80 60 80 60 80H20ZM40 50.25C43.3152 50.25 46.4946 48.933 48.8388 46.5888C51.183 44.2446 52.5 41.0652 52.5 37.75C52.5 34.4348 51.183 31.2554 48.8388 28.9112C46.4946 26.567 43.3152 25.25 40 25.25C36.6848 25.25 33.5054 26.567 31.1612 28.9112C28.817 31.2554 27.5 34.4348 27.5 37.75C27.5 41.0652 28.817 44.2446 31.1612 46.5888C33.5054 48.933 36.6848 50.25 40 50.25V50.25Z" fill="black"/>
<path d="M10 5C7.34784 5 4.8043 6.05357 2.92893 7.92893C1.05357 9.8043 0 12.3478 0 15L0 62.5C0 64.4891 0.790176 66.3968 2.1967 67.8033C3.60322 69.2098 5.51088 70 7.5 70H10.765C11.8105 66.3256 13.6275 62.9165 16.095 60H5V15C5 13.6739 5.52678 12.4021 6.46447 11.4645C7.40215 10.5268 8.67392 10 10 10H70C71.3261 10 72.5979 10.5268 73.5355 11.4645C74.4732 12.4021 75 13.6739 75 15V60H63.905C66.675 63.27 68.355 66.865 69.235 70H72.5C74.4891 70 76.3968 69.2098 77.8033 67.8033C79.2098 66.3968 80 64.4891 80 62.5V15C80 12.3478 78.9464 9.8043 77.0711 7.92893C75.1957 6.05357 72.6522 5 70 5H10Z" fill="black"/>
</g>
<defs>
<clipPath id="clip0_207_264">
<rect width="80" height="80" fill="white"/>
</clipPath>
</defs>
</svg>
