<svg width="80" height="80" viewBox="0 0 80 80" fill="none" xmlns="http://www.w3.org/2000/svg">
<path d="M26.69 7.95C21.928 9.26242 17.1983 10.6895 12.505 12.23C12.0765 12.3688 11.6955 12.6252 11.4056 12.97C11.1156 13.3147 10.9283 13.734 10.865 14.18C8.09503 34.965 14.495 50.13 22.13 60.12C25.3626 64.392 29.2171 68.1554 33.565 71.285C35.295 72.505 36.825 73.385 38.03 73.95C38.63 74.235 39.12 74.425 39.495 74.54C39.659 74.5975 39.8281 74.6394 40 74.665C40.1699 74.6374 40.3372 74.5956 40.5 74.54C40.88 74.425 41.37 74.235 41.97 73.95C43.17 73.385 44.705 72.5 46.435 71.285C50.7829 68.1553 54.6374 64.3919 57.87 60.12C65.505 50.135 71.905 34.965 69.135 14.18C69.0723 13.7338 68.8852 13.3142 68.5952 12.9694C68.3051 12.6245 67.9239 12.3683 67.495 12.23C64.24 11.165 58.745 9.43 53.31 7.955C47.76 6.45 42.655 5.335 40 5.335C37.35 5.335 32.24 6.45 26.69 7.955V7.95ZM25.36 2.8C30.785 1.325 36.55 0 40 0C43.45 0 49.215 1.325 54.64 2.8C60.19 4.3 65.785 6.075 69.075 7.15C70.4506 7.60426 71.6701 8.43733 72.5934 9.55351C73.5168 10.6697 74.1066 12.0237 74.295 13.46C77.275 35.845 70.36 52.435 61.97 63.41C58.4122 68.1049 54.17 72.2393 49.385 75.675C47.7305 76.8639 45.9774 77.9094 44.145 78.8C42.745 79.46 41.24 80 40 80C38.76 80 37.26 79.46 35.855 78.8C34.0226 77.9094 32.2696 76.8639 30.615 75.675C25.8302 72.2392 21.5879 68.1048 18.03 63.41C9.64003 52.435 2.72503 35.845 5.70503 13.46C5.89346 12.0237 6.48324 10.6697 7.40661 9.55351C8.32998 8.43733 9.54948 7.60426 10.925 7.15C15.701 5.58405 20.5141 4.13362 25.36 2.8Z" fill="black"/>
<path d="M54.27 25.73C54.5028 25.9622 54.6875 26.2381 54.8135 26.5418C54.9396 26.8456 55.0045 27.1712 55.0045 27.5C55.0045 27.8288 54.9396 28.1545 54.8135 28.4582C54.6875 28.7619 54.5028 29.0378 54.27 29.27L39.27 44.27C39.0378 44.5028 38.7619 44.6875 38.4582 44.8136C38.1544 44.9396 37.8288 45.0045 37.5 45.0045C37.1711 45.0045 36.8455 44.9396 36.5418 44.8136C36.2381 44.6875 35.9622 44.5028 35.73 44.27L28.23 36.77C27.9975 36.5376 27.8132 36.2616 27.6874 35.9579C27.5616 35.6542 27.4968 35.3287 27.4968 35C27.4968 34.6713 27.5616 34.3458 27.6874 34.0421C27.8132 33.7384 27.9975 33.4625 28.23 33.23C28.4624 32.9976 28.7384 32.8132 29.0421 32.6874C29.3458 32.5616 29.6713 32.4969 30 32.4969C30.3287 32.4969 30.6542 32.5616 30.9579 32.6874C31.2616 32.8132 31.5375 32.9976 31.77 33.23L37.5 38.965L50.73 25.73C50.9622 25.4972 51.2381 25.3125 51.5418 25.1864C51.8455 25.0604 52.1711 24.9955 52.5 24.9955C52.8288 24.9955 53.1544 25.0604 53.4582 25.1864C53.7619 25.3125 54.0378 25.4972 54.27 25.73Z" fill="black"/>
</svg>
