<svg width="80" height="80" viewBox="0 0 80 80" fill="none" xmlns="http://www.w3.org/2000/svg">
<path d="M39.2 20.5C39.2731 20.3501 39.3869 20.2237 39.5283 20.1353C39.6698 20.0469 39.8332 20 40 20C40.1668 20 40.3303 20.0469 40.4717 20.1353C40.6132 20.2237 40.7269 20.3501 40.8 20.5L43.97 26.925C44.0335 27.055 44.1276 27.1675 44.2444 27.2529C44.3611 27.3383 44.4969 27.3939 44.64 27.415L51.74 28.445C52.465 28.55 52.76 29.445 52.23 29.96L47.1 34.965C46.9965 35.066 46.9192 35.1908 46.8748 35.3284C46.8303 35.4661 46.8201 35.6125 46.845 35.755L48.055 42.825C48.0822 42.9883 48.0633 43.1558 48.0005 43.309C47.9377 43.4621 47.8334 43.5946 47.6994 43.6918C47.5654 43.7889 47.407 43.8467 47.2419 43.8588C47.0769 43.8708 46.9117 43.8366 46.765 43.76L40.415 40.42C40.2877 40.3534 40.1462 40.3186 40.0025 40.3186C39.8588 40.3186 39.7173 40.3534 39.59 40.42L33.24 43.76C33.0935 43.8353 32.9289 43.8684 32.7647 43.8557C32.6004 43.8429 32.443 43.7849 32.3098 43.688C32.1766 43.591 32.0729 43.4591 32.0102 43.3067C31.9476 43.1543 31.9285 42.9876 31.955 42.825L33.165 35.755C33.1905 35.6129 33.1811 35.4668 33.1376 35.3291C33.094 35.1915 33.0176 35.0665 32.915 34.965L27.765 29.96C27.647 29.8442 27.5637 29.6978 27.5242 29.5372C27.4848 29.3767 27.4908 29.2083 27.5417 29.051C27.5926 28.8937 27.6863 28.7537 27.8123 28.6467C27.9383 28.5396 28.0916 28.4698 28.255 28.445L35.355 27.415C35.4981 27.3939 35.6339 27.3383 35.7506 27.2529C35.8674 27.1675 35.9616 27.055 36.025 26.925L39.2 20.5Z" fill="black"/>
<path d="M10 10C10 7.34784 11.0536 4.8043 12.9289 2.92893C14.8043 1.05357 17.3478 0 20 0L60 0C62.6522 0 65.1957 1.05357 67.0711 2.92893C68.9464 4.8043 70 7.34784 70 10V77.5C69.9998 77.9522 69.8769 78.3959 69.6444 78.7838C69.412 79.1717 69.0787 79.4893 68.68 79.7027C68.2813 79.9161 67.8322 80.0175 67.3805 79.9958C66.9288 79.9742 66.4915 79.8305 66.115 79.58L40 65.505L13.885 79.58C13.5085 79.8305 13.0712 79.9742 12.6195 79.9958C12.1678 80.0175 11.7187 79.9161 11.32 79.7027C10.9213 79.4893 10.588 79.1717 10.3556 78.7838C10.1231 78.3959 10.0002 77.9522 10 77.5V10ZM20 5C18.6739 5 17.4021 5.52678 16.4645 6.46447C15.5268 7.40215 15 8.67392 15 10V72.83L38.615 60.42C39.0253 60.147 39.5072 60.0013 40 60.0013C40.4928 60.0013 40.9747 60.147 41.385 60.42L65 72.83V10C65 8.67392 64.4732 7.40215 63.5355 6.46447C62.5979 5.52678 61.3261 5 60 5H20Z" fill="black"/>
</svg>
