<svg width="20" height="20" viewBox="0 0 20 20" fill="none" xmlns="http://www.w3.org/2000/svg">
<path d="M16.025 12.7168L13.908 12.4748C13.6592 12.4457 13.4071 12.4733 13.1705 12.5555C12.9339 12.6378 12.719 12.7726 12.542 12.9498L11.008 14.4828C8.6427 13.2797 6.72012 11.3571 5.517 8.99181L7.058 7.44981C7.417 7.09181 7.592 6.59181 7.533 6.08281L7.292 3.98281C7.24464 3.57622 7.04942 3.20124 6.7435 2.92926C6.43759 2.65727 6.04234 2.50727 5.633 2.50781H4.192C3.25 2.50781 2.467 3.29181 2.525 4.23281C2.967 11.3498 8.658 17.0328 15.767 17.4748C16.708 17.5328 17.492 16.7498 17.492 15.8078V14.3668C17.4941 13.9593 17.3454 13.5653 17.0746 13.2608C16.8038 12.9562 16.43 12.7624 16.025 12.7168Z" fill="#00A3FE"/>
</svg>
