<svg width="32" height="33" viewBox="0 0 32 33" fill="none" xmlns="http://www.w3.org/2000/svg">
<path d="M31.3307 9.20996C31.1499 8.52887 30.7934 7.90724 30.2968 7.40732C29.8003 6.9074 29.1811 6.54673 28.5013 6.36145C26.0067 5.68799 16 5.68799 16 5.68799C16 5.68799 5.99333 5.68799 3.49733 6.36145C2.81788 6.54706 2.19906 6.90786 1.70277 7.40774C1.20648 7.90763 0.850122 8.52909 0.669333 9.20996C0 11.7224 0 16.9633 0 16.9633C0 16.9633 0 22.2043 0.669333 24.7167C0.850115 25.3979 1.20663 26.0195 1.70319 26.5194C2.19974 27.0192 2.8189 27.3799 3.49867 27.5652C5.99333 28.2387 16 28.2387 16 28.2387C16 28.2387 26.0067 28.2387 28.5027 27.5652C29.1825 27.3801 29.8017 27.0194 30.2983 26.5196C30.7949 26.0196 31.1513 25.3979 31.332 24.7167C32 22.2043 32 16.9633 32 16.9633C32 16.9633 32 11.7224 31.3307 9.20996ZM12.7267 21.7215V12.2052L21.0907 16.9633L12.7267 21.7215Z" fill="white"/>
</svg>
