<svg width="186" height="38" viewBox="0 0 186 38" fill="none" xmlns="http://www.w3.org/2000/svg">
<path d="M29.112 36.864C28.888 36.864 28.728 36.848 28.632 36.816C28.536 36.752 28.44 36.608 28.344 36.384L24.888 27.744H9.24L5.784 36.384C5.72 36.608 5.64 36.752 5.544 36.816C5.448 36.848 5.288 36.864 5.064 36.864H0.648C0.072 36.864 -0.12 36.64 0.072 36.192L14.088 1.2C14.184 0.944001 14.248 0.800001 14.28 0.768002C14.344 0.704 14.536 0.672 14.856 0.672H19.32C19.608 0.672 19.784 0.704 19.848 0.768002C19.912 0.800001 19.992 0.944001 20.088 1.2L34.104 36.192C34.264 36.64 34.072 36.864 33.528 36.864H29.112ZM11.208 22.704H22.872L17.064 7.92L11.208 22.704Z" fill="white"/>
<path d="M55.251 36.816C55.091 36.816 54.947 36.784 54.819 36.72C54.723 36.624 54.691 36.496 54.723 36.336V34.416C53.891 35.44 52.867 36.224 51.651 36.768C50.467 37.312 49.219 37.584 47.907 37.584C44.803 37.584 42.483 36.672 40.947 34.848C39.411 33.024 38.643 30.416 38.643 27.024V10.944C38.643 10.784 38.691 10.64 38.787 10.512C38.915 10.352 39.059 10.272 39.219 10.272H43.155C43.315 10.272 43.459 10.352 43.587 10.512C43.715 10.672 43.779 10.832 43.779 10.992V26.256C43.779 28.656 44.163 30.352 44.931 31.344C45.731 32.336 46.899 32.832 48.435 32.832C50.163 32.832 51.587 32.176 52.707 30.864C53.859 29.552 54.435 27.6 54.435 25.008V10.944C54.435 10.784 54.483 10.64 54.579 10.512C54.707 10.352 54.851 10.272 55.011 10.272H58.995C59.155 10.272 59.283 10.368 59.379 10.56C59.507 10.72 59.571 10.88 59.571 11.04V30.624C59.571 31.616 59.587 32.592 59.619 33.552C59.651 34.512 59.667 35.392 59.667 36.192C59.667 36.608 59.491 36.816 59.139 36.816H55.251Z" fill="white"/>
<path d="M80.5684 36.432C80.1204 36.72 79.4004 36.976 78.4084 37.2C77.4484 37.456 76.4084 37.584 75.2884 37.584C73.9444 37.584 72.8724 37.312 72.0724 36.768C71.2724 36.192 70.6804 35.536 70.2964 34.8C69.8484 33.968 69.5764 32.992 69.4804 31.872C69.3844 30.752 69.3364 29.232 69.3364 27.312V15.264H65.3524C65.1924 15.264 65.0484 15.216 64.9204 15.12C64.8244 14.992 64.7764 14.848 64.7764 14.688V10.896C64.7764 10.736 64.8244 10.608 64.9204 10.512C65.0484 10.384 65.1924 10.32 65.3524 10.32H69.3364V3.6C69.3364 3.44 69.4004 3.312 69.5284 3.216C69.6564 3.088 69.8004 3.024 69.9604 3.024H73.8484C74.0404 3.024 74.1844 3.088 74.2804 3.216C74.4084 3.312 74.4724 3.44 74.4724 3.6V10.32H79.0804C79.2404 10.32 79.3684 10.384 79.4644 10.512C79.5924 10.608 79.6564 10.736 79.6564 10.896V14.688C79.6564 14.848 79.5924 14.992 79.4644 15.12C79.3684 15.216 79.2404 15.264 79.0804 15.264H74.4724V27.648C74.4724 29.824 74.5204 31.2 74.6164 31.776C74.7444 32.352 75.0484 32.704 75.5284 32.832C76.0084 32.96 76.5524 32.992 77.1604 32.928C77.5764 32.864 78.0404 32.784 78.5524 32.688C79.0644 32.56 79.5124 32.416 79.8964 32.256C80.0564 32.192 80.1684 32.192 80.2324 32.256C80.2964 32.288 80.3604 32.432 80.4244 32.688L80.8084 35.856C80.8404 36.08 80.7604 36.272 80.5684 36.432Z" fill="white"/>
<path d="M105.206 33.168C104.054 34.608 102.678 35.712 101.078 36.48C99.4779 37.216 97.6699 37.584 95.6539 37.584C93.6059 37.584 91.7979 37.216 90.2299 36.48C88.6619 35.744 87.3499 34.736 86.2939 33.456C85.2379 32.176 84.4379 30.688 83.8939 28.992C83.3819 27.296 83.1259 25.488 83.1259 23.568C83.1259 21.648 83.3819 19.84 83.8939 18.144C84.4379 16.448 85.2379 14.976 86.2939 13.728C87.3499 12.448 88.6459 11.44 90.1819 10.704C91.7499 9.968 93.5739 9.6 95.6539 9.6C97.7019 9.6 99.5099 9.968 101.078 10.704C102.646 11.44 103.958 12.448 105.014 13.728C106.07 14.976 106.854 16.448 107.366 18.144C107.91 19.84 108.182 21.648 108.182 23.568C108.182 25.456 107.926 27.232 107.414 28.896C106.902 30.528 106.166 31.952 105.206 33.168ZM95.6539 14.304C94.4059 14.304 93.3179 14.576 92.3899 15.12C91.4939 15.664 90.7579 16.384 90.1819 17.28C89.6059 18.144 89.1739 19.136 88.8859 20.256C88.5979 21.344 88.4539 22.448 88.4539 23.568C88.4539 24.688 88.5979 25.808 88.8859 26.928C89.1739 28.016 89.6059 29.008 90.1819 29.904C90.7579 30.8 91.4939 31.52 92.3899 32.064C93.3179 32.608 94.4059 32.88 95.6539 32.88C96.9019 32.88 97.9739 32.608 98.8699 32.064C99.7979 31.52 100.55 30.8 101.126 29.904C101.702 29.008 102.134 28.016 102.422 26.928C102.71 25.808 102.854 24.688 102.854 23.568C102.854 22.48 102.71 21.392 102.422 20.304C102.134 19.184 101.702 18.192 101.126 17.328C100.55 16.432 99.7979 15.712 98.8699 15.168C97.9739 14.592 96.9019 14.304 95.6539 14.304Z" fill="white"/>
<path d="M139.115 36.48C138.187 36.736 137.067 36.976 135.755 37.2C134.443 37.424 132.923 37.536 131.195 37.536C128.475 37.536 125.995 37.088 123.755 36.192C121.547 35.296 119.659 34.032 118.091 32.4C116.523 30.736 115.307 28.752 114.443 26.448C113.579 24.144 113.147 21.584 113.147 18.768C113.147 15.984 113.563 13.44 114.395 11.136C115.259 8.832 116.475 6.864 118.043 5.232C119.611 3.568 121.499 2.288 123.707 1.392C125.947 0.464001 128.443 0 131.195 0C132.635 0 134.043 0.0799999 135.419 0.24C136.795 0.368 138.043 0.608001 139.163 0.960002C139.515 1.056 139.723 1.184 139.787 1.344C139.851 1.472 139.867 1.696 139.835 2.016L139.739 5.568C139.739 6.08 139.659 6.336 139.499 6.336C139.339 6.336 139.067 6.272 138.683 6.144C136.283 5.408 133.787 5.04 131.195 5.04C129.211 5.04 127.435 5.376 125.867 6.048C124.331 6.72 123.019 7.664 121.931 8.88C120.875 10.096 120.059 11.552 119.483 13.248C118.939 14.912 118.667 16.752 118.667 18.768C118.667 20.752 118.971 22.592 119.579 24.288C120.187 25.952 121.035 27.408 122.123 28.656C123.243 29.872 124.555 30.832 126.059 31.536C127.595 32.24 129.291 32.592 131.147 32.592C132.811 32.592 134.219 32.528 135.371 32.4C136.555 32.24 137.643 31.984 138.635 31.632C139.051 31.472 139.323 31.424 139.451 31.488C139.579 31.552 139.643 31.696 139.643 31.92L139.835 35.328C139.867 35.68 139.835 35.936 139.739 36.096C139.675 36.256 139.467 36.384 139.115 36.48Z" fill="white"/>
<path d="M160.757 36.816C160.533 36.816 160.389 36.8 160.325 36.768C160.261 36.704 160.229 36.576 160.229 36.384V34.224C159.429 35.344 158.405 36.192 157.157 36.768C155.941 37.312 154.709 37.584 153.461 37.584C152.149 37.584 150.933 37.408 149.813 37.056C148.725 36.704 147.781 36.176 146.981 35.472C146.213 34.768 145.605 33.904 145.157 32.88C144.709 31.824 144.485 30.608 144.485 29.232C144.485 27.6 144.773 26.176 145.349 24.96C145.925 23.712 146.821 22.688 148.037 21.888C149.285 21.056 150.869 20.448 152.789 20.064C154.709 19.648 157.029 19.44 159.749 19.44C159.749 18.832 159.685 18.224 159.557 17.616C159.429 17.008 159.205 16.464 158.885 15.984C158.597 15.504 158.181 15.12 157.637 14.832C157.093 14.512 156.405 14.352 155.573 14.352C154.133 14.352 152.821 14.544 151.637 14.928C150.485 15.312 149.397 15.824 148.373 16.464C147.861 16.784 147.509 16.928 147.317 16.896C147.157 16.864 147.077 16.688 147.077 16.368V12.72C147.077 12.592 147.061 12.464 147.029 12.336C147.029 12.176 147.061 12.048 147.125 11.952C147.221 11.824 147.461 11.648 147.845 11.424C148.933 10.88 150.037 10.432 151.157 10.08C152.309 9.728 153.749 9.552 155.477 9.552C158.709 9.552 161.093 10.336 162.629 11.904C164.197 13.472 164.981 15.936 164.981 19.296V30.672C164.981 31.568 164.981 32.512 164.981 33.504C165.013 34.464 165.077 35.312 165.173 36.048C165.237 36.56 165.061 36.816 164.645 36.816H160.757ZM159.893 24C156.341 24 153.797 24.432 152.261 25.296C150.725 26.16 149.957 27.456 149.957 29.184C149.957 30.4 150.309 31.312 151.013 31.92C151.717 32.528 152.661 32.832 153.845 32.832C155.669 32.832 157.125 32.16 158.213 30.816C159.333 29.472 159.893 27.376 159.893 24.528V24Z" fill="white"/>
<path d="M185.234 15.12C184.594 14.96 184.033 14.864 183.553 14.832C183.074 14.768 182.658 14.768 182.305 14.832C181.345 15.024 180.562 15.44 179.954 16.08C179.378 16.688 178.93 17.408 178.609 18.24C178.322 19.072 178.129 19.968 178.033 20.928C177.938 21.888 177.889 22.8 177.889 23.664V36.144C177.889 36.592 177.698 36.816 177.314 36.816H173.329C172.977 36.816 172.801 36.576 172.801 36.096V16.752C172.801 15.728 172.785 14.704 172.753 13.68C172.721 12.656 172.706 11.76 172.706 10.992C172.706 10.704 172.754 10.528 172.85 10.464C172.945 10.368 173.105 10.32 173.329 10.32H177.314C177.538 10.32 177.665 10.352 177.697 10.416C177.729 10.48 177.745 10.592 177.745 10.752V12.864C177.969 12.48 178.257 12.096 178.609 11.712C178.993 11.328 179.393 10.992 179.809 10.704C180.257 10.384 180.706 10.144 181.154 9.984C181.602 9.792 182.018 9.696 182.402 9.696C183.01 9.696 183.554 9.712 184.034 9.744C184.546 9.744 185.074 9.904 185.618 10.224C185.778 10.288 185.874 10.4 185.906 10.56C185.938 10.688 185.954 10.816 185.954 10.944V14.544C185.954 14.672 185.905 14.816 185.809 14.976C185.714 15.136 185.521 15.184 185.234 15.12Z" fill="white"/>
</svg>
